<?xml version="1.0" encoding="UTF-8" standalone="no"?>
<!-- Created with Inkscape (http://www.inkscape.org/) -->

<svg
   xmlns:dc="http://purl.org/dc/elements/1.1/"
   xmlns:cc="http://creativecommons.org/ns#"
   xmlns:rdf="http://www.w3.org/1999/02/22-rdf-syntax-ns#"
   xmlns:svg="http://www.w3.org/2000/svg"
   xmlns="http://www.w3.org/2000/svg"
   xmlns:sodipodi="http://sodipodi.sourceforge.net/DTD/sodipodi-0.dtd"
   xmlns:inkscape="http://www.inkscape.org/namespaces/inkscape"
   width="64"
   height="64"
   id="svg5382"
   version="1.1"
   inkscape:version="0.91 r13725"
   viewBox="0 0 64 64"
   sodipodi:docname="icon.svg"
   inkscape:export-filename="/Users/josepplloo/favicon-64.png"
   inkscape:export-xdpi="191.25"
   inkscape:export-ydpi="191.25">
  <defs
     id="defs5384" />
  <sodipodi:namedview
     id="base"
     pagecolor="#ffffff"
     bordercolor="#666666"
     borderopacity="1.0"
     inkscape:pageopacity="0.0"
     inkscape:pageshadow="2"
     inkscape:zoom="5.12"
     inkscape:cx="8.6899266"
     inkscape:cy="43.847692"
     inkscape:current-layer="layer1"
     showgrid="true"
     inkscape:document-units="px"
     inkscape:grid-bbox="true"
     inkscape:window-width="1280"
     inkscape:window-height="752"
     inkscape:window-x="0"
     inkscape:window-y="0"
     inkscape:window-maximized="1" />
  <metadata
     id="metadata5387">
    <rdf:RDF>
      <cc:Work
         rdf:about="">
        <dc:format>image/svg+xml</dc:format>
        <dc:type
           rdf:resource="http://purl.org/dc/dcmitype/StillImage" />
        <dc:title></dc:title>
      </cc:Work>
    </rdf:RDF>
  </metadata>
  <g
     id="layer1"
     inkscape:label="Layer 1"
     inkscape:groupmode="layer">
    <path
       inkscape:connector-curvature="0"
       d="m 36.932675,63.244059 -0.215359,-16.00894 5.765563,-11.075837 7.684394,-4.425556 4.806337,1.123099 2.55804,2.156515 0.856168,2.032772 0.113768,1.891444 -0.113768,-1.891444 0.843749,0.818539 -0.843749,-0.818539 -0.856168,-2.032772 1.786613,0.351149 1.039559,-0.447628 -1.039559,0.447628 -1.786613,-0.351149 -2.55804,-2.156515 2.667203,-1.656154 1.727251,0.03345 1.361691,0.723516 -1.361691,-0.723516 1.023747,-1.037615 0.375973,-1.318621 -0.375973,1.318621 -1.023747,1.037615 -1.727251,-0.03345 1.24427,-2.945752 1.191225,-1.269122 0.979038,-0.433776 -0.979038,0.433776 0.499791,-1.273224 -0.499791,1.273224 -1.191225,1.269122 -0.242787,-2.967216 0.469926,-1.459149 -0.0052,-1.384047 0.0052,1.384047 -0.469926,1.459149 -1.170848,-1.721121 -0.358853,-1.307475 0.358853,1.307475 -1.06215,-0.275635 1.06215,0.275635 1.170848,1.721121 0.242787,2.967216 -1.24427,2.945752 -2.667203,1.656154 -4.806337,-1.123099 3.07557,-4.854041 3.204624,-1.03301 2.475699,0.580801 1.441024,1.414368 0.77143,1.803545 1.150781,0.655879 0.617294,1.116812 -0.617294,-1.116812 1.04298,-0.360516 -1.04298,0.360516 -1.150781,-0.655879 -0.77143,-1.803545 1.607075,0.121992 0.78512,0.970308 -0.78512,-0.970308 -1.607075,-0.121992 -1.441024,-1.414368 1.384859,-0.553886 1.25485,0.09239 -1.25485,-0.09239 0.715843,-1.137243 -0.715843,1.137243 -1.384859,0.553886 -2.475699,-0.580801 1.932267,-2.543355 1.359197,-0.544293 -1.359197,0.544293 0.415783,-1.943644 0.794799,-0.852579 -0.794799,0.852579 -0.245116,-1.372326 0.245116,1.372326 -0.415783,1.943644 -1.932267,2.543355 -3.204624,1.03301 0.656611,-3.603441 1.49413,-2.382572 1.446695,-0.521806 0.894538,-1.246825 -0.894538,1.246825 -1.446695,0.521806 0.405078,-2.548865 0.695852,-1.205782 -0.695852,1.205782 -0.332405,-1.968561 0.255629,-1.604813 -0.255629,1.604813 -0.9446,-1.083495 0.9446,1.083495 0.332405,1.968561 -0.405078,2.548865 -1.49413,2.382572 -0.679889,-3.188159 0.314063,-2.097074 -0.273186,-1.64939 0.231711,-1.444556 -0.231711,1.444556 0.273186,1.64939 -0.314063,2.097074 -1.236921,-1.845564 -0.507979,-1.839643 0.172894,-1.644426 0.79416,-1.056478 -0.79416,1.056478 -0.172894,1.644426 -0.754656,-1.062588 0.754656,1.062588 0.507979,1.839643 -1.16765,-0.298241 1.16765,0.298241 1.236921,1.845564 0.679889,3.188159 -0.656611,3.603441 -3.07557,4.854041 -7.684394,4.425556 -0.211138,-8.984507 2.038981,-4.15302 2.616661,-1.826116 2.143488,0.118363 1.323521,1.199903 0.486994,1.687759 -0.335543,1.283888 0.335543,-1.283888 -0.486994,-1.687759 1.416585,0.379563 -1.416585,-0.379563 -1.323521,-1.199903 1.16964,-0.533429 -1.16964,0.533429 -2.143488,-0.118363 0.834916,-1.825967 0.940146,-0.881554 -0.940146,0.881554 -0.106397,-1.381978 0.106397,1.381978 -0.834916,1.825967 -2.616661,1.826116 0.368231,-2.664557 0.734924,-1.564754 0.956918,-0.589643 -0.956918,0.589643 -0.09014,-1.572347 0.497767,-1.240539 -0.497767,1.240539 0.09014,1.572347 -0.734924,1.564754 -0.511786,-1.188407 0.511786,1.188407 -0.368231,2.664557 -2.038981,4.15302 -2.185353,-5.905205 -0.145801,-4.67244 0.979308,-2.245255 1.050104,-1.122706 0.32942,-1.388239 -0.32942,1.388239 -1.050104,1.122706 0.11956,-1.398076 -0.11956,1.398076 -0.979308,2.245255 -0.840366,-2.497684 0.125741,-1.785855 -0.3253,-1.478255 0.3253,1.478255 -0.125741,1.785855 -0.936796,-1.085567 0.936796,1.085567 0.840366,2.497684 0.145801,4.67244 -3.59582,-3.490334 -1.0357,-4.465692 0.215936,-2.988422 0.773594,-1.7427566 -0.773594,1.7427566 -0.519743,-1.7979648 0.234757,-1.6712388 -0.472855,-1.3628945 0.472855,1.3628945 -0.234757,1.6712388 0.519743,1.7979648 -0.215936,2.988422 -2.023693,-3.219 L 33.126109,7.0183265 33.879575,5.057374 34.949868,4.3764138 33.879575,5.057374 33.126109,7.0183265 32.060339,5.1754239 31.941992,3.2325547 32.566098,2.002935 31.941992,3.2325547 31.22037,1.9182787 l 0.721622,1.314276 0.118347,1.9428692 1.06577,1.8429026 0.305066,3.0762175 -1.752506,-0.9564689 -1.060051,-1.6524034 -1.164264,-0.8051097 1.164264,0.8051097 1.060051,1.6524034 -1.021275,0.3137337 1.021275,-0.3137337 1.752506,0.9564689 2.023693,3.219 1.0357,4.465692 -3.960839,-0.135299 -2.196501,-1.986209 -0.814485,-1.561911 0.0023,-1.669675 0.564778,-1.278049 -0.564778,1.278049 -0.0023,1.669675 0.814485,1.561911 -1.490449,0.104375 -0.95703,-0.831529 0.95703,0.831529 1.490449,-0.104375 2.196501,1.986209 -1.883967,1.251017 -1.174144,-0.04836 -0.85792,-0.771768 0.85792,0.771768 1.174144,0.04836 -0.529907,1.50571 0.529907,-1.50571 1.883967,-1.251017 3.960839,0.135299 3.59582,3.490334 2.185353,5.905205 0.211138,8.984507 -5.765563,11.075837 -4.947833,-12.050159 0.634356,-6.819039 2.707284,-4.454884 3.194734,-2.536167 3.329647,0.0676 1.483413,1.586706 0.534935,1.502147 -0.104054,1.38861 0.104054,-1.38861 -0.534935,-1.502147 1.280759,0.394543 0.789831,0.881143 -0.789831,-0.881143 -1.280759,-0.394543 -1.483413,-1.586706 2.389324,-1.479711 1.742728,0.289726 1.031946,0.702691 -1.031946,-0.702691 -1.742728,-0.289726 1.571443,-2.232415 1.784784,-0.880067 1.554608,0.40363 1.254539,-0.566271 1.005279,0.392239 -1.005279,-0.392239 -1.254539,0.566271 -1.554608,-0.40363 0.716323,-1.522483 -0.716323,1.522483 -1.784784,0.880067 0.584875,-2.207181 1.258946,-0.98861 1.24868,0.05732 -1.24868,-0.05732 0.591521,-1.204157 -0.591521,1.204157 -1.258946,0.98861 -0.353635,-1.801766 -0.858736,-0.807892 0.858736,0.807892 0.353635,1.801766 -0.584875,2.207181 -1.571443,2.232415 -2.389324,1.479711 -3.329647,-0.0676 1.636034,-3.124218 1.915606,-0.757989 1.695139,0.256554 0.965474,0.802419 -0.965474,-0.802419 -1.695139,-0.256554 0.86011,-0.891271 -0.86011,0.891271 -1.915606,0.757989 0.235342,-3.384048 0.969106,-2.580443 1.054397,-0.654989 -1.054397,0.654989 0.04192,-2.4202146 0.454415,-1.2210045 -0.454415,1.2210045 -0.382778,-1.446597 0.382778,1.446597 -0.04192,2.4202146 -0.969106,2.580443 -0.687604,-2.504135 0.01167,-1.766618 0.676827,-1.2641501 -0.676827,1.2641501 -0.01167,1.766618 -1.171854,-1.034989 -0.712957,-1.3446237 0.712957,1.3446237 1.171854,1.034989 0.687604,2.504135 -0.235342,3.384048 -1.636034,3.124218 -3.194734,2.536167 0.2935,-4.106225 1.804608,-2.752286 2.256517,-0.60165 1.208405,0.580719 1.122661,-0.272553 -1.122661,0.272553 -1.208405,-0.580719 1.327493,-1.434066 1.139009,-0.08091 -1.139009,0.08091 -1.327493,1.434066 -2.256517,0.60165 0.599623,-3.102149 1.44693,-2.018248 1.808812,-0.451342 1.349299,0.412801 0.76699,1.004458 -0.76699,-1.004458 -1.349299,-0.412801 0.955062,-1.141779 -0.955062,1.141779 -1.808812,0.451342 0.473162,-2.1332845 0.895152,-0.8621279 -0.895152,0.8621279 -0.366229,-1.2911617 0.366229,1.2911617 -0.473162,2.1332845 -1.44693,2.018248 -0.29419,-1.881515 0.294029,-1.338553 -0.294029,1.338553 0.29419,1.881515 -0.599623,3.102149 -1.804608,2.752286 -0.802504,-2.523261 -0.0455,-1.377116 0.0455,1.377116 -1.473588,-1.138476 -0.585143,-1.231439 0.585143,1.231439 -1.278795,-0.222676 1.278795,0.222676 1.473588,1.138476 0.802504,2.523261 -0.2935,4.106225 -2.707284,4.454884 -1.805736,-3.69399 -0.400546,-3.517935 0.741377,-2.554668 1.406226,-1.090967 1.439894,-2.18e-4 -1.439894,2.18e-4 0.672945,-1.533718 1.014222,-0.602145 -1.014222,0.602145 0.110162,-1.488341 -0.110162,1.488341 -0.672945,1.533718 -1.406226,1.090967 -0.176296,-1.47155 0.176296,1.47155 -0.741377,2.554668 -1.105538,-2.590919 0.09564,-2.302529 0.554996,-1.183951 -0.554996,1.183951 -0.661788,-1.840166 -0.879984,-1.055823 0.879984,1.055823 0.661788,1.840166 -0.09564,2.302529 -1.266439,-1.195484 -0.521232,-1.265669 0.521232,1.265669 1.266439,1.195484 1.105538,2.590919 0.400546,3.517935 -1.767198,-0.764338 -0.61446,-1.088718 0.61446,1.088718 -1.006625,0.325846 1.006625,-0.325846 1.767198,0.764338 1.805736,3.69399 -0.634356,6.819039 -8.143825,-4.882972 -3.271807,-5.330714 -1.343651,-5.416435 0.206592,-4.142289 1.044419,-2.470398 1.053522,-1.036532 -1.053522,1.036532 -0.279587,-2.202268 0.246015,-1.6791497 -0.246015,1.6791497 -0.869499,-1.2232981 0.869499,1.2232981 0.279587,2.202268 -1.044419,2.470398 -0.747516,-2.14368 0.119542,-1.706502 -0.119542,1.706502 -0.855536,-0.905795 0.855536,0.905795 0.747516,2.14368 -0.206592,4.142289 -1.517865,-2.496738 -0.008,-2.774415 0.563262,-1.73185 -0.168924,-1.370295 0.168924,1.370295 -0.563262,1.73185 -1.144701,-1.98116 -0.313229,-1.803518 -0.587937,-1.1235925 0.587937,1.1235925 0.313229,1.803518 -1.437032,-0.612525 -1.055346,0.226702 1.055346,-0.226702 1.437032,0.612525 1.144701,1.98116 0.008,2.774415 -1.39678,-1.023644 -1.317417,0.03533 1.317417,-0.03533 1.39678,1.023644 1.517865,2.496738 1.343651,5.416435 -3.844686,-2.234292 -1.459916,-2.442455 -0.213118,-2.547277 0.45567,-1.427791 -0.45567,1.427791 -0.633972,-1.173085 0.633972,1.173085 0.213118,2.547277 -1.045379,-0.820547 1.045379,0.820547 1.459916,2.442455 -3.67013,0.811182 -2.609778,-0.777648 -1.2194229,-1.563757 -1.2775669,-0.73052 -0.7572285,-0.977087 0.7572285,0.977087 1.2775669,0.73052 1.2194229,1.563757 -1.5338728,0.583175 -1.3267818,-0.337586 -1.0527911,0.468736 1.0527911,-0.468736 1.3267818,0.337586 -0.997349,1.03284 0.997349,-1.03284 1.5338728,-0.583175 2.609778,0.777648 -2.054947,2.081963 -1.8081395,0.675341 -1.2063969,-0.638916 1.2063969,0.638916 1.8081395,-0.675341 -0.740788,2.760158 -1.078157,1.313846 -0.2504039,1.637076 -0.6123382,1.179925 0.6123382,-1.179925 0.1684581,1.380607 -0.1684581,-1.380607 0.2504039,-1.637076 1.078157,-1.313846 0.457518,1.684006 0.744047,1.092844 -0.744047,-1.092844 -0.457518,-1.684006 0.740788,-2.760158 2.054947,-2.081963 3.67013,-0.811182 3.844686,2.234292 3.271807,5.330714 -6.032406,1.905851 -4.538489,-2.076403 -1.629299,-2.690606 -0.541982,-2.169549 -0.9213222,-1.425683 -0.3729094,-1.580345 -0.8870109,-0.922767 0.8870109,0.922767 0.3729094,1.580345 -1.1350329,-0.642024 1.1350329,0.642024 0.9213222,1.425683 0.541982,2.169549 -1.5769008,-0.557971 1.5769008,0.557971 1.629299,2.690606 -4.0649931,0.618483 -3.1183265,-1.480332 -0.9486263,-2.107794 -0.2134566,-1.958274 0.5456686,-1.304884 -0.5456686,1.304884 0.2134566,1.958274 -0.9469254,-0.82444 0.9469254,0.82444 0.9486263,2.107794 -1.9003642,0.246781 -1.0768207,-0.853052 1.0768207,0.853052 1.9003642,-0.246781 3.1183265,1.480332 -2.1616301,2.532833 -2.4180566,0.52921 -2.1106905,-0.734284 -0.8233384,-1.081716 0.8233384,1.081716 -1.0988487,0.632864 1.0988487,-0.632864 2.1106905,0.734284 -1.4870085,1.446305 -0.699185,1.6765 -0.8465668,0.811636 0.8465668,-0.811636 0.699185,-1.6765 1.4870085,-1.446305 2.4180566,-0.52921 L 6.487925,35.879937 5.5718269,36.996803 6.487925,35.879937 6.9306398,37.77119 7.9235343,38.975822 8.3660562,40.224235 7.9235343,38.975822 6.9306398,37.77119 6.487925,35.879937 l 0.3402148,-2.597185 2.1616301,-2.532833 4.0649931,-0.618483 4.538489,2.076403 -3.559024,4.739569 -2.943183,0.621416 -1.7583188,-1.039375 -0.7300805,-0.953241 0.7300805,0.953241 -1.3257509,0.381236 1.3257509,-0.381236 1.7583188,1.039375 -1.7797,1.995565 L 8.0922717,39.996893 9.311345,39.564389 8.9213663,42.00686 7.704503,43.466021 6.3952902,44.02214 5.2454112,43.462694 6.3952902,44.02214 5.5282173,44.939894 6.3952902,44.02214 7.704503,43.466021 7.1611918,44.881436 7.2933587,46.21997 7.1611918,44.881436 7.704503,43.466021 8.9213663,42.00686 l 0.5652061,1.576744 0.076695,1.559065 0.5025006,1.217445 -0.5025006,-1.217445 -0.076695,-1.559065 -0.5652061,-1.576744 0.3899787,-2.442471 1.7797,-1.995565 2.943183,-0.621416 -0.605468,4.047556 -1.374642,1.59058 -0.663355,1.752808 0.663355,-1.752808 1.374642,-1.59058 0.730201,2.181473 -0.140418,1.501008 0.140418,-1.501008 1.086106,1.116902 1.143408,0.387991 -1.143408,-0.387991 -1.086106,-1.116902 -0.730201,-2.181473 0.605468,-4.047556 3.559024,-4.739569 6.032406,-1.905851 8.143825,4.882972 4.947833,12.050159 0.215359,16.00894"
       style="fill:none;fill-opacity:1;stroke:#4e9a06;stroke-width:1.45419812;stroke-linecap:round;stroke-linejoin:round;stroke-miterlimit:4;stroke-dasharray:none;stroke-opacity:1"
       id="path4569"
       sodipodi:nodetypes="ccccccccccccccccccccccccccccccccccccccccccccccccccccccccccccccccccccccccccccccccccccccccccccccccccccccccccccccccccccccccccccccccccccccccccccccccccccccccccccccccccccccccccccccccccccccccccccccccccccccccccccccccccccccccccccccccccccccccccccccccccccccccccccccccccccccccccccccccccccccccccccccccccccccccccccccccccccccccccccccccccccccccccccccccccccccccccccccccccccccccccccccccccccccccccccccccccccccccccccccccccccccccccccccccccccccccccccccccccccccccccccccccccccccccccccccccccccccccccccccccccccccccccccccccccccccccccccccccccccccccccccccccccccccccccccccccccccccccccccccccccccccccccccccccccccccccccccccccccccccccccccccccccc" />
  </g>
</svg>
